# xmcd CD database file
#
# Track frame offsets:
#	150
#	8428
#	19301
#	30513
#	40624
#	51146
#	61672
#	72263
#	83834
#	94414
#	105235
#	115427
#	126221
#	135473
#	141575
#	152562
#	163152
#	171644
#	182431
#	191171
#	200781
#
# Disc length: 2804 seconds
#
# Revision: 0
# Processed by: cddbd v1.5.2PL0 Copyright (c) Steve Scherf et al.
# Submitted via: CDex 1.70beta2
#
DISCID=220af215
DTITLE=Artiste Variés - 21 Reels Au Violon
DYEAR=1900
DGENRE=Country
TTITLE0=Reel Des Écossais
TTITLE1=Reel Des Adieu
TTITLE2=Reel Du Massacre
TTITLE3=Reel Des Montagnes
TTITLE4=Reel De La Mer
TTITLE5=Reel Des Sapins Verts
TTITLE6=Reel Du Père Octave
TTITLE7=Reel Des Mouettes
TTITLE8=Reel Des Grand-Mères
TTITLE9=Reel De La Bonne Soirée
TTITLE10=Reel Des Vieilles Filles
TTITLE11=Reel De La Lune De Miel
TTITLE12=Reel Des Cultivateurs
TTITLE13=Reel Des Prisonniers
TTITLE14=Reel Des Tuyaux De Poêle
TTITLE15=Reel Du Cirque
TTITLE16=Reel Du Pipe Line
TTITLE17=Reel Des Grand-Pères
TTITLE18=Reel Du Rang
TTITLE19=Reel Du Gros Chène
TTITLE20=Reel De La Rivière Bleue
EXTD=
EXTT0=
EXTT1=
EXTT2=
EXTT3=
EXTT4=
EXTT5=
EXTT6=
EXTT7=
EXTT8=
EXTT9=
EXTT10=
EXTT11=
EXTT12=
EXTT13=
EXTT14=
EXTT15=
EXTT16=
EXTT17=
EXTT18=
EXTT19=
EXTT20=
PLAYORDER=
